<svg xmlns="http://www.w3.org/2000/svg" xmlns:xlink="http://www.w3.org/1999/xlink" version="1.1" x="0px" y="0px" viewBox="0 0 100 125" style="enable-background:new 0 0 100 100;" xml:space="preserve"><path d="M82.2,20.2c-7.6-6-16.6-9-26.6-9c-8.7,0-17.9,2.3-26.6,6.8c-7.8,4-17.9,11.3-21.5,24.2c-0.9,3-2,7.3-1.6,11.5  c0.2,2,2.3,13.6,8.6,15.2c0.2,0.7,0.4,1.4,0.7,2.1c0.1,0,0.1,0.1,0.1,0.1c1.8,3.6,5.6,5.7,10.1,5.7c0.2,0,0.5,0,0.8,0  c0,2.3-0.2,5.1-0.4,7.1c-0.1,1.7,1,3.4,2.7,3.8l4.1,1.1c0.3,0.1,0.6,0.1,0.9,0.1c1.5,0,3-1,3.4-2.6c0.8-2.7,2.1-5.8,2.9-6.6  c2.8-0.9,4.4-3.8,5.2-5.9c4.8-1.2,7.3-3.6,8.7-6c0.6,0.1,1.3,0.3,1.9,0.5c2.5,0.8,4.3,1.4,5.7,1.9c2.5,0.8,3.8,1.3,5.3,1.3  c2,0,3.3-0.9,4.8-1.9c0.5-0.3,1-0.7,1.8-1.2c5-3.2,6.3-7.3,6.4-10.7c0.9,0.1,1.7,0.1,2.5,0.1c7.5,0,11.9-4.1,12-11.3  C94.3,35.8,89.9,26.2,82.2,20.2z M78.8,44.1l-0.3,0.1c-0.7,0-1.4-0.3-2-0.8c-0.5-0.5-0.9-1.2-0.9-1.9l-0.2-6.3L62.4,51  c-1,1.2-2.8,1.5-4,0.4c-0.3-0.2-0.4-0.6-0.6-0.8l-5.1-8.2l-7.9,13.4c-0.4,0.7-1,1.2-1.8,1.4c-0.8,0.2-1.5,0-2.1-0.4  c-0.3-0.1-0.5-0.3-0.6-0.5c0-0.1,0-0.1-0.1-0.2l-4.1-5.1l-11,15.9c-0.2,0.3-0.7,0.6-1,0.7c-0.5,0.1-1.1,0-1.5-0.3  c-0.8-0.5-1-1.6-0.6-2.5l11.7-19.9c0.4-0.6,1.1-1.1,1.7-1.3c0.6-0.1,1.3-0.1,1.9,0.3c0.3,0.1,0.6,0.3,0.7,0.4c0,0.1,0.1,0.1,0.1,0.2  l0.1,0.1l3.9,4.7l8.3-14c0.4-0.7,1-1.2,1.8-1.4c0.6-0.2,1.4-0.1,1.9,0.3c0.4,0.2,0.7,0.5,1,0.9l5.5,8.8l9.9-12.5  c-4.9,1.1-7.1,1.7-7.4,1.7c-1.5,0.1-2.9-0.9-3.1-2.4c-0.2-1.5,0.8-2.8,2.3-3.2c0.6-0.2,4.6-1.2,8.9-2.3c2.1-0.5,4.2-1,5.9-1.4  c0.7-0.3,1.7-0.2,2.4,0.4c0.8,0.5,1.2,1.3,1.2,2.3l0.5,14.6C81.3,42.7,80.2,43.9,78.8,44.1z"/><text x="0" y="115" fill="#000000" font-size="5px" font-weight="bold" font-family="'Helvetica Neue', Helvetica, Arial-Unicode, Arial, Sans-serif">Created by Round Icons</text><text x="0" y="120" fill="#000000" font-size="5px" font-weight="bold" font-family="'Helvetica Neue', Helvetica, Arial-Unicode, Arial, Sans-serif">from the Noun Project</text></svg>